<?xml version="1.0" encoding="UTF-8"?>
<svg width="60px" height="40px" viewBox="0 0 60 40" version="1.1" xmlns="http://www.w3.org/2000/svg" xmlns:xlink="http://www.w3.org/1999/xlink">
    <!-- Generator: Sketch 52.5 (67469) - http://www.bohemiancoding.com/sketch -->
    <title>Fish_Frame_Hit01</title>
    <desc>Created with Sketch.</desc>
    <g id="Fish_Frame_Hit01" stroke="none" stroke-width="1" fill="none" fill-rule="evenodd">
        <path d="M1,37 L1,33 L2,33 L2,29 L3,29 L3,25 L4,25 L4,21 L5,21 L5,19 L4,19 L4,15 L3,15 L3,11 L2,11 L2,7 L1,7 L1,3 L0,3 L0,0 L1,0 L2,0 L3,0 L4,0 L5,0 L8,0 L8,2 L11,2 L11,4 L14,4 L14,6 L17,6 L17,8 L20,8 L20,4 L22,4 L22,2 L26,2 L26,0 L54,0 L54,2 L58,2 L58,6 L60,6 L60,34 L58,34 L58,38 L54,38 L54,40 L26,40 L26,38 L22,38 L22,36 L20,36 L20,32 L17,32 L17,34 L14,34 L14,36 L11,36 L11,38 L8,38 L8,40 L5,40 L4,40 L3,40 L2,40 L1,40 L0,40 L0,37 L1,37 Z" id="Body" fill="#FF7901"></path>
        <path d="M31,23 L32,23 L32,27 L31,27 L31,28 L30,28 L30,29 L29,29 L29,30 L25,30 L25,29 L24,29 L24,28 L23,28 L23,27 L22,27 L22,23 L23,23 L23,22 L24,22 L24,21 L25,21 L25,20 L29,20 L29,21 L30,21 L30,22 L31,22 L31,23 Z" id="Spot6" fill="#F5A623"></path>
        <path d="M42,14 L43,14 L43,18 L42,18 L42,19 L41,19 L41,20 L40,20 L40,21 L36,21 L36,20 L35,20 L35,19 L34,19 L34,18 L33,18 L33,14 L34,14 L34,13 L35,13 L35,12 L36,12 L36,11 L40,11 L40,12 L41,12 L41,13 L42,13 L42,14 Z" id="Spot5" fill="#F5A623"></path>
        <path d="M14,27 L15,27 L15,31 L14,31 L14,32 L13,32 L13,33 L12,33 L12,34 L8,34 L8,33 L7,33 L7,32 L6,32 L6,31 L5,31 L5,27 L6,27 L6,26 L7,26 L7,25 L8,25 L8,24 L12,24 L12,25 L13,25 L13,26 L14,26 L14,27 Z" id="Spot4" fill="#F5A623"></path>
        <path d="M28,5 L27,5 L27,1 L28,1 L28,1.5339034e-16 L36,1.6229665e-15 L36,1 L37,1 L37,5 L36,5 L36,6 L35,6 L35,7 L34,7 L34,8 L30,8 L30,7 L29,7 L29,6 L28,6 L28,5 Z" id="Spot3" fill="#F5A623"></path>
        <path d="M45,36 L46,36 L46,40 L36,40 L36,36 L37,36 L37,35 L38,35 L38,34 L39,34 L39,33 L43,33 L43,34 L44,34 L44,35 L45,35 L45,36 Z" id="Spot2" fill="#F5A623"></path>
        <path d="M18,11 L19,11 L19,15 L18,15 L18,16 L17,16 L17,17 L16,17 L16,18 L12,18 L12,17 L11,17 L11,16 L10,16 L10,15 L9,15 L9,11 L10,11 L10,10 L11,10 L11,9 L12,9 L12,8 L16,8 L16,9 L17,9 L17,10 L18,10 L18,11 Z" id="Spot1" fill="#F5A623"></path>
        <path d="M54,17 L54,18 L42,18 L42,17 L39,17 L39,16 L44,16 L44,17 L52,17 L52,16 L57,16 L57,17 L54,17 Z" id="Blink" fill="#000000"></path>
        <path d="M56,31 L57,31 L57,32 L57,33 L56,33 L56,32 L54,32 L54,33 L52,33 L52,32 L53,32 L53,31 L54,31 L54,30 L56,30 L56,31 Z" id="Mouth" fill="#000000"></path>
        <path d="M34,25 L34,24 L36,24 L36,27 L35,27 L35,28 L34,28 L34,29 L33,29 L33,30 L32,30 L24,30 L22,30 L22,25 L24,25 L24,28 L31,28 L31,27 L32,27 L32,26 L33,26 L33,25 L34,25 Z" id="Fin2" fill="#000000"></path>
    </g>
</svg>