<?xml version="1.0" encoding="UTF-8"?>
<svg width="60px" height="40px" viewBox="0 0 60 40" version="1.1" xmlns="http://www.w3.org/2000/svg" xmlns:xlink="http://www.w3.org/1999/xlink">
    <!-- Generator: Sketch 59.1 (86144) - https://sketch.com -->
    <title>Santa_Frame_Hit02</title>
    <desc>Created with Sketch.</desc>
    <g id="Santa_Frame_Hit02" stroke="none" stroke-width="1" fill="none" fill-rule="evenodd">
        <g id="Group" transform="translate(7.000000, 0.000000)">
            <rect id="Rectangle-Copy-47" fill="#FFD7BB" x="36" y="14" width="3" height="1"></rect>
            <rect id="Rectangle-Copy-56" fill="#FFD7BB" x="39" y="6" width="5" height="4"></rect>
            <rect id="Rectangle-Copy-71" fill="#FFD7BB" x="15" y="24" width="5" height="4"></rect>
            <rect id="Rectangle-Copy-72" fill="#FFD7BB" x="14" y="25" width="4" height="4"></rect>
            <rect id="Rectangle-Copy-48" fill="#FFD7BB" x="24" y="12" width="12" height="10"></rect>
            <rect id="Rectangle" fill="#FF0000" x="21" y="8" width="14" height="1"></rect>
            <rect id="Rectangle-Copy-12" fill="#FF0000" x="20" y="7" width="13" height="1"></rect>
            <rect id="Rectangle-Copy-13" fill="#FF0000" x="19" y="5" width="9" height="1"></rect>
            <rect id="Rectangle-Copy-134" fill="#FF0000" x="19" y="6" width="12" height="1"></rect>
            <rect id="Rectangle-Copy-4" fill="#FF0000" x="18" y="3" width="6" height="1"></rect>
            <rect id="Rectangle-Copy-133" fill="#FF0000" x="18" y="4" width="8" height="1"></rect>
            <rect id="Rectangle-Copy-5" fill="#FF0000" x="17" y="2" width="5" height="1"></rect>
            <rect id="Rectangle-Copy-6" fill="#0D0D0D" x="18" y="1" width="1" height="1"></rect>
            <rect id="Rectangle-Copy-7" fill="#0D0D0D" x="17" y="0" width="1" height="1"></rect>
            <rect id="Rectangle-Copy-8" fill="#0D0D0D" x="16" y="0" width="1" height="1"></rect>
            <rect id="Rectangle-Copy-9" fill="#0D0D0D" x="15" y="1" width="1" height="1"></rect>
            <rect id="Rectangle-Copy-10" fill="#0D0D0D" x="15" y="2" width="1" height="1"></rect>
            <rect id="Rectangle-Copy-11" fill="#0D0D0D" x="16" y="3" width="1" height="1"></rect>
            <rect id="Rectangle-Copy-18" fill="#B2ADAD" x="28" y="12" width="1" height="1"></rect>
            <rect id="Rectangle-Copy-19" fill="#B2ADAD" x="27" y="13" width="1" height="1"></rect>
            <rect id="Rectangle-Copy-21" fill="#E0DFDF" x="21" y="13" width="1" height="1"></rect>
            <rect id="Rectangle-Copy-27" fill="#E0DFDF" x="21" y="17" width="2" height="1"></rect>
            <rect id="Rectangle-Copy-128" fill="#E0DFDF" x="23" y="18" width="1" height="1"></rect>
            <rect id="Rectangle-Copy-26" fill="#E0DFDF" x="21" y="12" width="1" height="1"></rect>
            <rect id="Rectangle-Copy-131" fill="#E0DFDF" x="30" y="12" width="1" height="1"></rect>
            <rect id="Rectangle-Copy-20" fill="#B2ADAD" x="26" y="14" width="1" height="1"></rect>
            <rect id="Rectangle-Copy-39" fill="#B2ADAD" x="28" y="15" width="1" height="1"></rect>
            <rect id="Rectangle-Copy-36" fill="#B2ADAD" x="33" y="16" width="1" height="1"></rect>
            <rect id="Rectangle-Copy-43" fill="#323232" x="36" y="18" width="3" height="1"></rect>
            <rect id="Rectangle-Copy-40" fill="#B2ADAD" x="32" y="21" width="1" height="1"></rect>
            <rect id="Rectangle-Copy-41" fill="#B2ADAD" x="31" y="22" width="1" height="2"></rect>
            <rect id="Rectangle-Copy-44" fill="#EBEBEB" x="40" y="22" width="1" height="2"></rect>
            <rect id="Rectangle-Copy-45" fill="#EBEBEB" x="39" y="24" width="1" height="2"></rect>
            <rect id="Rectangle-Copy-42" fill="#B2ADAD" x="30" y="24" width="1" height="2"></rect>
            <rect id="Rectangle-Copy-57" fill="#949494" x="35" y="27" width="1" height="2"></rect>
            <rect id="Rectangle-Copy-59" fill="#FA9E3D" x="35" y="27" width="1" height="3"></rect>
            <rect id="Rectangle-Copy-58" fill="#FA9E3D" x="31" y="27" width="1" height="3"></rect>
            <rect id="Rectangle-Copy-60" fill="#FA9E3D" x="32" y="29" width="3" height="1"></rect>
            <rect id="Rectangle-Copy-96" fill="#FA9E3D" x="32" y="29" width="3" height="1"></rect>
            <rect id="Rectangle-Copy-97" fill="#FA9E3D" x="32" y="27" width="2" height="1"></rect>
            <rect id="Rectangle-Copy-61" fill="#333333" x="34" y="27" width="1" height="2"></rect>
            <rect id="Rectangle-Copy-63" fill="#333333" x="32" y="28" width="2" height="1"></rect>
            <rect id="Rectangle-Copy-65" fill="#333333" x="25" y="27" width="4" height="3"></rect>
            <rect id="Rectangle-Copy-66" fill="#333333" x="22" y="28" width="4" height="1"></rect>
            <rect id="Rectangle-Copy-95" fill="#333333" x="22" y="29" width="4" height="1"></rect>
            <rect id="Rectangle-Copy-64" fill="#333333" x="28" y="26" width="3" height="3"></rect>
            <rect id="Rectangle-Copy-62" fill="#333333" x="36" y="27" width="2" height="1"></rect>
            <rect id="Rectangle-Copy-34" fill="#EBEBEB" x="41" y="16" width="1" height="6"></rect>
            <rect id="Rectangle-Copy-35" fill="#B2ADAD" x="34" y="15" width="7" height="1"></rect>
            <rect id="Rectangle-Copy-25" fill="#E0DFDF" x="20" y="14" width="1" height="3"></rect>
            <rect id="Rectangle-Copy-24" fill="#B2ADAD" x="24" y="19" width="4" height="1"></rect>
            <rect id="Rectangle-Copy-38" fill="#B2ADAD" x="28" y="20" width="4" height="1"></rect>
            <rect id="Rectangle-Copy-14" fill="#FFFFFF" x="22" y="12" width="6" height="1"></rect>
            <rect id="Rectangle-Copy-130" fill="#FFFFFF" x="31" y="12" width="4" height="1"></rect>
            <rect id="Rectangle-Copy-92" fill="#FFFFFF" x="16" y="1" width="2" height="1"></rect>
            <rect id="Rectangle-Copy-93" fill="#FFFFFF" x="16" y="2" width="1" height="1"></rect>
            <rect id="Rectangle-Copy-15" fill="#FFFFFF" x="22" y="13" width="5" height="1"></rect>
            <rect id="Rectangle-Copy-16" fill="#FFFFFF" x="21" y="14" width="5" height="3"></rect>
            <rect id="Rectangle-Copy-17" fill="#FFFFFF" x="23" y="16" width="8" height="2"></rect>
            <rect id="Rectangle-Copy-23" fill="#FFFFFF" x="23" y="15" width="5" height="2"></rect>
            <rect id="Rectangle-Copy-22" fill="#FFFFFF" x="28" y="17" width="5" height="3"></rect>
            <rect id="Rectangle-Copy-127" fill="#FFFFFF" x="24" y="18" width="5" height="1"></rect>
            <rect id="Rectangle-Copy-28" fill="#FFFFFF" x="34" y="16" width="7" height="2"></rect>
            <rect id="Rectangle-Copy-31" fill="#FFFFFF" x="33" y="19" width="8" height="3"></rect>
            <rect id="Rectangle-Copy-32" fill="#FFFFFF" x="32" y="22" width="8" height="2"></rect>
            <rect id="Rectangle-Copy-33" fill="#FFFFFF" x="31" y="24" width="8" height="2"></rect>
            <rect id="Rectangle-Copy-138" fill="#FFFFFF" x="31" y="25" width="5" height="2"></rect>
            <rect id="Rectangle-Copy-141" fill="#252525" x="32" y="14" width="3" height="1"></rect>
            <rect id="Rectangle-Copy-142" fill="#252525" x="36" y="19" width="1" height="1"></rect>
            <rect id="Rectangle-Copy-143" fill="#252525" x="35" y="20" width="1" height="1"></rect>
            <rect id="Rectangle-Copy-29" fill="#FFFFFF" x="32" y="18" width="4" height="2"></rect>
            <rect id="Rectangle-Copy-37" fill="#FFFFFF" x="33" y="17" width="1" height="1"></rect>
            <rect id="Rectangle-Copy-129" fill="#FFFFFF" x="32" y="20" width="1" height="1"></rect>
            <rect id="Rectangle-Copy-30" fill="#FFFFFF" x="39" y="18" width="2" height="2"></rect>
            <rect id="Rectangle-Copy-2" fill="#FF0000" x="22" y="10" width="16" height="1"></rect>
            <rect id="Rectangle-Copy" fill="#FF0000" x="23" y="9" width="15" height="1"></rect>
            <rect id="Rectangle-Copy-3" fill="#FF0000" x="22" y="11" width="15" height="1"></rect>
            <rect id="Rectangle-Copy-51" fill="#FF0000" x="38" y="10" width="7" height="1"></rect>
            <rect id="Rectangle-Copy-52" fill="#FF0000" x="38" y="11" width="6" height="3"></rect>
            <rect id="Rectangle-Copy-67" fill="#FF0000" x="18" y="24" width="12" height="2"></rect>
            <rect id="Rectangle-Copy-70" fill="#FF0000" x="19" y="22" width="12" height="2"></rect>
            <rect id="Rectangle-Copy-94" fill="#FF0000" x="23" y="21" width="7" height="1"></rect>
            <rect id="Rectangle-Copy-98" fill="#CB6A3F" x="0" y="19" width="21" height="1"></rect>
            <rect id="Rectangle-Copy-100" fill="#CB6A3F" x="1" y="18" width="16" height="1"></rect>
            <rect id="Rectangle-Copy-101" fill="#CB6A3F" x="2" y="17" width="12" height="1"></rect>
            <rect id="Rectangle-Copy-102" fill="#CB6A3F" x="3" y="16" width="7" height="1"></rect>
            <rect id="Rectangle-Copy-99" fill="#CB6A3F" x="0" y="20" width="24" height="1"></rect>
            <rect id="Rectangle-Copy-132" fill="#CB6A3F" x="0" y="21" width="23" height="1"></rect>
            <rect id="Rectangle-Copy-103" fill="#CB6A3F" x="0" y="22" width="19" height="1"></rect>
            <rect id="Rectangle-Copy-104" fill="#CB6A3F" x="0" y="23" width="19" height="1"></rect>
            <rect id="Rectangle-Copy-105" fill="#CB6A3F" x="0" y="24" width="15" height="1"></rect>
            <rect id="Rectangle-Copy-106" fill="#CB6A3F" x="0" y="25" width="14" height="1"></rect>
            <rect id="Rectangle-Copy-107" fill="#CB6A3F" x="0" y="26" width="14" height="2"></rect>
            <rect id="Rectangle-Copy-108" fill="#CB6A3F" x="1" y="27" width="13" height="2"></rect>
            <rect id="Rectangle-Copy-109" fill="#CB6A3F" x="3" y="29" width="14" height="1"></rect>
            <rect id="Rectangle-Copy-112" fill="#CB6A3F" x="18" y="28" width="3" height="1"></rect>
            <rect id="Rectangle-Copy-110" fill="#CB6A3F" x="6" y="30" width="11" height="1"></rect>
            <rect id="Rectangle-Copy-111" fill="#CB6A3F" x="9" y="31" width="6" height="1"></rect>
            <rect id="Rectangle-Copy-68" fill="#FF0000" x="20" y="26" width="8" height="1"></rect>
            <rect id="Rectangle-Copy-69" fill="#FF0000" x="20" y="27" width="5" height="1"></rect>
            <rect id="Rectangle-Copy-75" fill="#FF0000" x="29" y="29" width="2" height="1"></rect>
            <rect id="Rectangle-Copy-73" fill="#FF0000" x="23" y="30" width="19" height="2"></rect>
            <rect id="Rectangle-Copy-76" fill="#FF0000" x="36" y="28" width="3" height="5"></rect>
            <rect id="Rectangle-Copy-135" fill="#FF0000" x="38" y="33" width="4" height="1"></rect>
            <rect id="Rectangle-Copy-136" fill="#FF0000" x="35" y="32" width="7" height="1"></rect>
            <rect id="Rectangle-Copy-77" fill="#FF0000" x="38" y="30" width="4" height="1"></rect>
            <rect id="Rectangle-Copy-78" fill="#FF0000" x="39" y="29" width="3" height="1"></rect>
            <rect id="Rectangle-Copy-79" fill="#763722" x="42" y="28" width="1" height="7"></rect>
            <rect id="Rectangle-Copy-85" fill="#763722" x="21" y="29" width="1" height="7"></rect>
            <rect id="Rectangle-Copy-86" fill="#763722" x="22" y="30" width="1" height="3"></rect>
            <rect id="Rectangle-Copy-80" fill="#763722" x="43" y="29" width="1" height="6"></rect>
            <rect id="Rectangle-Copy-87" fill="#763722" x="20" y="30" width="1" height="5"></rect>
            <rect id="Rectangle-Copy-88" fill="#763722" x="19" y="30" width="1" height="9"></rect>
            <rect id="Rectangle-Copy-89" fill="#763722" x="18" y="30" width="1" height="9"></rect>
            <rect id="Rectangle-Copy-90" fill="#393939" x="17" y="30" width="1" height="3"></rect>
            <rect id="Rectangle-Copy-91" fill="#393939" x="17" y="34" width="1" height="5"></rect>
            <rect id="Rectangle-Copy-81" fill="#763722" x="44" y="25" width="1" height="10"></rect>
            <rect id="Rectangle-Copy-82" fill="#763722" x="45" y="25" width="1" height="10"></rect>
            <rect id="Rectangle-Copy-83" fill="#393939" x="46" y="25" width="1" height="6"></rect>
            <rect id="Rectangle-Copy-84" fill="#393939" x="46" y="32" width="1" height="3"></rect>
            <rect id="Rectangle-Copy-74" fill="#FF0000" x="22" y="33" width="6" height="1"></rect>
            <rect id="Rectangle-Copy-137" fill="#FF0000" x="23" y="32" width="10" height="1"></rect>
            <rect id="Rectangle-Copy-53" fill="#FF0000" x="39" y="12" width="5" height="3"></rect>
            <rect id="Rectangle-Copy-54" fill="#FF0000" x="42" y="13" width="2" height="3"></rect>
            <rect id="Rectangle-Copy-139" fill="#FF0000" x="42" y="15" width="1" height="3"></rect>
            <rect id="Rectangle-Copy-140" fill="#FF0000" x="36" y="26" width="2" height="1"></rect>
            <rect id="Rectangle-Copy-55" fill="#FF0000" x="41" y="14" width="3" height="2"></rect>
            <rect id="Rectangle" fill="#FFA429" x="8" y="21" width="1" height="3"></rect>
            <rect id="Rectangle-Copy-122" fill="#FFA429" x="3" y="25" width="1" height="3"></rect>
            <rect id="Rectangle-Copy-114" fill="#FFA429" x="13" y="26" width="1" height="3"></rect>
            <rect id="Rectangle-Copy-116" fill="#FFA429" x="15" y="20" width="1" height="3"></rect>
            <rect id="Rectangle-Copy-113" fill="#FFA429" transform="translate(8.500000, 22.500000) rotate(-270.000000) translate(-8.500000, -22.500000) " x="8" y="21" width="1" height="3"></rect>
            <rect id="Rectangle-Copy-123" fill="#FFA429" transform="translate(3.500000, 26.500000) rotate(-270.000000) translate(-3.500000, -26.500000) " x="3" y="25" width="1" height="3"></rect>
            <rect id="Rectangle-Copy-115" fill="#FFA429" transform="translate(13.000000, 27.500000) rotate(-270.000000) translate(-13.000000, -27.500000) " x="12.5" y="26.5" width="1" height="2"></rect>
            <rect id="Rectangle-Copy-117" fill="#FFA429" transform="translate(15.500000, 21.500000) rotate(-270.000000) translate(-15.500000, -21.500000) " x="15" y="20" width="1" height="3"></rect>
            <rect id="Rectangle-Copy-118" fill="#FFA429" transform="translate(10.500000, 26.500000) rotate(-270.000000) translate(-10.500000, -26.500000) " x="10" y="26" width="1" height="1"></rect>
            <rect id="Rectangle-Copy-119" fill="#FFA429" transform="translate(11.500000, 20.500000) rotate(-270.000000) translate(-11.500000, -20.500000) " x="11" y="20" width="1" height="1"></rect>
            <rect id="Rectangle-Copy-120" fill="#FFA429" transform="translate(3.500000, 19.500000) rotate(-270.000000) translate(-3.500000, -19.500000) " x="3" y="19" width="1" height="1"></rect>
            <rect id="Rectangle-Copy-124" fill="#FFA429" transform="translate(9.500000, 16.500000) rotate(-270.000000) translate(-9.500000, -16.500000) " x="9" y="16" width="1" height="1"></rect>
            <rect id="Rectangle-Copy-125" fill="#FFA429" transform="translate(0.500000, 23.500000) rotate(-270.000000) translate(-0.500000, -23.500000) " x="0" y="23" width="1" height="1"></rect>
            <rect id="Rectangle-Copy-126" fill="#FFA429" transform="translate(16.500000, 30.500000) rotate(-270.000000) translate(-16.500000, -30.500000) " x="16" y="30" width="1" height="1"></rect>
            <rect id="Rectangle-Copy-46" fill="#B2ADAD" x="31" y="27" width="5" height="1"></rect>
            <rect id="Rectangle-Copy-121" fill="#FFA429" transform="translate(8.500000, 29.500000) rotate(-270.000000) translate(-8.500000, -29.500000) " x="8" y="29" width="1" height="1"></rect>
        </g>
    </g>
</svg>