<?xml version="1.0" encoding="UTF-8"?>
<svg width="90px" height="250px" viewBox="0 0 90 250" version="1.1" xmlns="http://www.w3.org/2000/svg" xmlns:xlink="http://www.w3.org/1999/xlink">
    <!-- Generator: Sketch 52.5 (67469) - http://www.bohemiancoding.com/sketch -->
    <title>Tentacle_Frame02</title>
    <desc>Created with Sketch.</desc>
    <g id="Tentacle_Frame02" stroke="none" stroke-width="1" fill="none" fill-rule="evenodd">
        <path d="M2,45 L1,45 L1,44 L1,42 L0,42 L0,29 L1,29 L1,25 L2,25 L2,19 L3,19 L4,19 L4,16 L6,16 L6,13 L8,13 L8,12 L9,12 L9,9 L12,9 L12,7 L16,7 L16,5 L18,5 L18,3 L22,3 L22,1 L29,1 L29,0 L50,0 L50,1 L59,1 L59,2 L62,2 L62,3 L64,3 L64,4 L67,4 L67,5 L69,5 L69,7 L71,7 L71,8 L72,8 L72,9 L73,9 L73,10 L74,10 L74,11 L75,11 L75,12 L76,12 L76,13 L77,13 L77,14 L78,14 L78,16 L79,16 L79,17 L80,17 L80,19 L81,19 L81,21 L82,21 L82,23 L83,23 L83,25 L84,25 L84,28 L85,28 L85,32 L86,32 L86,35 L87,35 L87,40 L88,40 L88,47 L88,57 L89,57 L89,77 L88,77 L88,78 L88,86 L88,89 L87,89 L87,92 L86,92 L86,95 L84,95 L84,99 L82,99 L82,104 L81,104 L81,108 L80,108 L80,112 L79,112 L79,115 L78,115 L78,119 L77,119 L77,124 L76,124 L76,126 L75,126 L75,133 L74,133 L74,173 L75,173 L75,185 L76,185 L76,193 L77,193 L77,199 L78,199 L78,202 L79,202 L79,205 L80,205 L80,210 L81,210 L81,216 L82,216 L82,220 L83,220 L83,225 L84,225 L84,229 L85,229 L85,233 L86,233 L86,237 L87,237 L87,241 L88,241 L88,245 L89,245 L89,248 L90,248 L90,250 L89,250 L88,250 L87,250 L75,250 L14,250 L0,250 L0,243 L1,243 L1,232 L2,232 L2,222 L3,222 L3,212 L4,212 L4,204 L5,204 L5,197 L6,197 L6,190 L7,190 L7,184 L8,184 L8,178 L9,178 L9,173 L10,173 L10,167 L11,167 L11,162 L12,162 L12,157 L13,157 L13,153 L14,153 L14,149 L15,149 L15,145 L16,145 L16,141 L17,141 L17,138 L18,138 L18,134 L19,134 L19,130 L20,130 L20,127 L21,127 L21,124 L22,124 L22,121 L23,121 L23,118 L24,118 L24,115 L25,115 L25,113 L26,113 L26,110 L27,110 L27,107 L28,107 L28,105 L29,105 L29,102 L30,102 L30,100 L31,100 L31,98 L32,98 L32,96 L33,96 L33,94 L34,94 L34,91 L36,91 L36,88 L37,88 L37,85 L39,85 L39,83 L41,83 L41,80 L42,80 L42,78 L43,78 L43,76 L44,76 L44,73 L45,73 L45,71 L46,71 L46,68 L47,68 L47,65 L48,65 L48,61 L49,61 L49,57 L50,57 L50,52 L51,52 L51,49 L53,49 L53,34 L52,34 L52,32 L51,32 L51,30 L50,30 L50,28 L49,28 L49,27 L48,27 L48,26 L47,26 L47,25 L45,25 L45,24 L43,24 L43,23 L40,23 L40,22 L37,22 L37,21 L34,21 L34,20 L31,20 L31,21 L29,21 L29,22 L27,22 L27,23 L25,23 L25,24 L23,24 L23,25 L21,25 L21,26 L20,26 L20,27 L19,27 L19,29 L17,29 L17,30 L16,30 L16,32 L15,32 L15,35 L14,35 L14,38 L13,38 L13,41 L14,41 L14,43 L15,43 L15,46 L16,46 L16,48 L18,48 L18,49 L19,49 L19,50 L21,50 L21,51 L23,51 L23,52 L25,52 L25,51 L28,51 L28,50 L31,50 L31,56 L30,56 L30,57 L29,57 L29,59 L27,59 L27,60 L20,60 L20,59 L17,59 L17,58 L14,58 L14,56 L11,56 L11,54 L9,54 L9,52 L7,52 L7,50 L4,50 L4,48 L2,48 L2,45 Z" id="Tentacle" fill="#FC0A6B"></path>
        <g id="Sucker-Copy-3" transform="translate(7.000000, 199.000000)" fill="#FFA8CB">
            <rect id="Rectangle-Copy-26" x="3" y="1" width="12" height="16"></rect>
            <rect id="Rectangle-Copy-30" x="2" y="2" width="14" height="14"></rect>
            <rect id="Rectangle-Copy-27" x="5" y="0" width="8" height="18"></rect>
            <polygon id="Rectangle-Copy-28" points="17.0407689 3 17.0407689 15.2805767 1 15.2805767 1 3"></polygon>
            <polygon id="Rectangle-Copy-29" points="18 5 18 13 0 13 0 5"></polygon>
        </g>
        <g id="Sucker-Copy-25" transform="translate(27.000000, 233.000000)" fill="#FFA8CB">
            <rect id="Rectangle-Copy-26" x="3" y="1" width="12" height="16"></rect>
            <rect id="Rectangle-Copy-30" x="2" y="2" width="14" height="14"></rect>
            <rect id="Rectangle-Copy-27" x="5" y="0" width="8" height="18"></rect>
            <polygon id="Rectangle-Copy-28" points="17.0407689 3 17.0407689 15.2805767 1 15.2805767 1 3"></polygon>
            <polygon id="Rectangle-Copy-29" points="18 5 18 13 0 13 0 5"></polygon>
        </g>
        <g id="Sucker-Copy-10" transform="translate(25.000000, 210.000000)" fill="#FFA8CB">
            <rect id="Rectangle-Copy-26" x="3" y="1" width="12" height="16"></rect>
            <rect id="Rectangle-Copy-30" x="2" y="2" width="14" height="14"></rect>
            <rect id="Rectangle-Copy-27" x="5" y="0" width="8" height="18"></rect>
            <polygon id="Rectangle-Copy-28" points="17.0407689 3 17.0407689 15.2805767 1 15.2805767 1 3"></polygon>
            <polygon id="Rectangle-Copy-29" points="18 5 18 13 0 13 0 5"></polygon>
        </g>
        <g id="Sucker-Copy-24" transform="translate(8.000000, 223.000000)" fill="#FFA8CB">
            <rect id="Rectangle-Copy-26" x="3" y="1" width="12" height="16"></rect>
            <rect id="Rectangle-Copy-30" x="2" y="2" width="14" height="14"></rect>
            <rect id="Rectangle-Copy-27" x="5" y="0" width="8" height="18"></rect>
            <polygon id="Rectangle-Copy-28" points="17.0407689 3 17.0407689 15.2805767 1 15.2805767 1 3"></polygon>
            <polygon id="Rectangle-Copy-29" points="18 5 18 13 0 13 0 5"></polygon>
        </g>
        <g id="Sucker-Copy-5" transform="translate(11.000000, 170.000000)" fill="#FFA8CB">
            <rect id="Rectangle-Copy-26" x="3" y="1" width="12" height="16"></rect>
            <rect id="Rectangle-Copy-30" x="2" y="2" width="14" height="14"></rect>
            <rect id="Rectangle-Copy-27" x="5" y="0" width="8" height="18"></rect>
            <polygon id="Rectangle-Copy-28" points="17.0407689 3 17.0407689 15.2805767 1 15.2805767 1 3"></polygon>
            <polygon id="Rectangle-Copy-29" points="18 5 18 13 0 13 0 5"></polygon>
        </g>
        <g id="Sucker-Copy-4" transform="translate(24.000000, 186.000000)" fill="#FFA8CB">
            <rect id="Rectangle-Copy-26" x="3" y="1" width="12" height="16"></rect>
            <rect id="Rectangle-Copy-30" x="2" y="2" width="14" height="14"></rect>
            <rect id="Rectangle-Copy-27" x="5" y="0" width="8" height="18"></rect>
            <polygon id="Rectangle-Copy-28" points="17.0407689 3 17.0407689 15.2805767 1 15.2805767 1 3"></polygon>
            <polygon id="Rectangle-Copy-29" points="18 5 18 13 0 13 0 5"></polygon>
        </g>
        <g id="Sucker-Copy-6" transform="translate(26.000000, 155.000000)" fill="#FFA8CB">
            <rect id="Rectangle-Copy-26" x="3" y="1" width="12" height="16"></rect>
            <rect id="Rectangle-Copy-30" x="2" y="2" width="14" height="14"></rect>
            <rect id="Rectangle-Copy-27" x="5" y="0" width="8" height="18"></rect>
            <polygon id="Rectangle-Copy-28" points="17.0407689 3 17.0407689 15.2805767 1 15.2805767 1 3"></polygon>
            <polygon id="Rectangle-Copy-29" points="18 5 18 13 0 13 0 5"></polygon>
        </g>
        <g id="Sucker-Copy-7" transform="translate(19.000000, 136.000000)" fill="#FFA8CB">
            <rect id="Rectangle-Copy-26" x="3" y="1" width="12" height="16"></rect>
            <rect id="Rectangle-Copy-30" x="2" y="2" width="14" height="14"></rect>
            <rect id="Rectangle-Copy-27" x="5" y="0" width="8" height="18"></rect>
            <polygon id="Rectangle-Copy-28" points="17.0407689 3 17.0407689 15.2805767 1 15.2805767 1 3"></polygon>
            <polygon id="Rectangle-Copy-29" points="18 5 18 13 0 13 0 5"></polygon>
        </g>
        <g id="Sucker-Copy-8" transform="translate(33.000000, 121.000000)" fill="#FFA8CB">
            <rect id="Rectangle-Copy-26" x="3" y="1" width="12" height="16"></rect>
            <rect id="Rectangle-Copy-30" x="2" y="2" width="14" height="14"></rect>
            <rect id="Rectangle-Copy-27" x="5" y="0" width="8" height="18"></rect>
            <polygon id="Rectangle-Copy-28" points="17.0407689 3 17.0407689 15.2805767 1 15.2805767 1 3"></polygon>
            <polygon id="Rectangle-Copy-29" points="18 5 18 13 0 13 0 5"></polygon>
        </g>
        <g id="Sucker-Copy-9" transform="translate(28.000000, 104.000000)" fill="#FFA8CB">
            <rect id="Rectangle-Copy-26" x="3" y="1" width="10" height="14"></rect>
            <rect id="Rectangle-Copy-30" x="2" y="2" width="12" height="12"></rect>
            <rect id="Rectangle-Copy-27" x="5" y="0" width="6" height="16"></rect>
            <polygon id="Rectangle-Copy-28" points="15 3 15 13 1 13 1 3"></polygon>
            <polygon id="Rectangle-Copy-29" points="16 5 16 11 0 11 0 5"></polygon>
        </g>
        <g id="Sucker-Copy-26" transform="translate(43.000000, 94.000000)" fill="#FFA8CB">
            <rect id="Rectangle-Copy-26" x="3" y="1" width="10" height="14"></rect>
            <rect id="Rectangle-Copy-30" x="2" y="2" width="12" height="12"></rect>
            <rect id="Rectangle-Copy-27" x="5" y="0" width="6" height="16"></rect>
            <polygon id="Rectangle-Copy-28" points="15 3 15 13 1 13 1 3"></polygon>
            <polygon id="Rectangle-Copy-29" points="16 5 16 11 0 11 0 5"></polygon>
        </g>
        <g id="Sucker-Copy-11" transform="translate(42.000000, 79.000000)" fill="#FFA8CB">
            <rect id="Rectangle-Copy-26" x="3" y="1" width="8" height="12"></rect>
            <rect id="Rectangle-Copy-30" x="2" y="2" width="10" height="10"></rect>
            <rect id="Rectangle-Copy-27" x="5" y="0" width="4" height="14"></rect>
            <polygon id="Rectangle-Copy-28" points="13 3 13 11 1 11 1 3"></polygon>
            <polygon id="Rectangle-Copy-29" points="14 5 14 9 0 9 0 5"></polygon>
        </g>
        <g id="Sucker-Copy-12" transform="translate(55.000000, 71.000000)" fill="#FFA8CB">
            <rect id="Rectangle-Copy-26" x="3" y="1" width="8" height="12"></rect>
            <rect id="Rectangle-Copy-30" x="2" y="2" width="10" height="10"></rect>
            <rect id="Rectangle-Copy-27" x="5" y="0" width="4" height="14"></rect>
            <polygon id="Rectangle-Copy-28" points="13 3 13 11 1 11 1 3"></polygon>
            <polygon id="Rectangle-Copy-29" points="14 5 14 9 0 9 0 5"></polygon>
        </g>
        <g id="Sucker-Copy-13" transform="translate(50.000000, 57.000000)" fill="#FFA8CB">
            <rect id="Rectangle-Copy-26" x="3" y="1" width="8" height="12"></rect>
            <rect id="Rectangle-Copy-30" x="2" y="2" width="10" height="10"></rect>
            <rect id="Rectangle-Copy-27" x="5" y="0" width="4" height="14"></rect>
            <polygon id="Rectangle-Copy-28" points="13 3 13 11 1 11 1 3"></polygon>
            <polygon id="Rectangle-Copy-29" points="14 5 14 9 0 9 0 5"></polygon>
        </g>
        <g id="Sucker-Copy-14" transform="translate(61.000000, 49.000000)" fill="#FFA8CB">
            <rect id="Rectangle-Copy-26" x="3" y="1" width="6" height="10"></rect>
            <rect id="Rectangle-Copy-30" x="2" y="2" width="8" height="8"></rect>
            <rect id="Rectangle-Copy-27" x="5" y="0" width="2" height="12"></rect>
            <polygon id="Rectangle-Copy-28" points="11 3 11 9 1 9 1 3"></polygon>
            <polygon id="Rectangle-Copy-29" points="12 5 12 7 0 7 0 5"></polygon>
        </g>
        <g id="Sucker-Copy-15" transform="translate(55.000000, 38.000000)" fill="#FFA8CB">
            <rect id="Rectangle-Copy-26" x="3" y="1" width="6" height="10"></rect>
            <rect id="Rectangle-Copy-30" x="2" y="2" width="8" height="8"></rect>
            <rect id="Rectangle-Copy-27" x="5" y="0" width="2" height="12"></rect>
            <polygon id="Rectangle-Copy-28" points="11 3 11 9 1 9 1 3"></polygon>
            <polygon id="Rectangle-Copy-29" points="12 5 12 7 0 7 0 5"></polygon>
        </g>
        <g id="Sucker-Copy-27" transform="translate(62.000000, 28.000000)" fill="#FFA8CB">
            <rect id="Rectangle-Copy-26" x="3" y="1" width="6" height="10"></rect>
            <rect id="Rectangle-Copy-30" x="2" y="2" width="8" height="8"></rect>
            <rect id="Rectangle-Copy-27" x="5" y="0" width="2" height="12"></rect>
            <polygon id="Rectangle-Copy-28" points="11 3 11 9 1 9 1 3"></polygon>
            <polygon id="Rectangle-Copy-29" points="12 5 12 7 0 7 0 5"></polygon>
        </g>
        <g id="Sucker-Copy-16" transform="translate(54.000000, 27.000000)" fill="#FFA8CB">
            <rect id="Rectangle-Copy-26" x="2" y="0" width="4" height="8"></rect>
            <rect id="Rectangle-Copy-30" x="1" y="1" width="6" height="6"></rect>
            <polygon id="Rectangle-Copy-28" points="8 2 8 6 0 6 0 2"></polygon>
        </g>
        <g id="Sucker-Copy-28" transform="translate(55.000000, 17.000000)" fill="#FFA8CB">
            <rect id="Rectangle-Copy-26" x="2" y="0" width="4" height="8"></rect>
            <rect id="Rectangle-Copy-30" x="1" y="1" width="6" height="6"></rect>
            <polygon id="Rectangle-Copy-28" points="8 2 8 6 0 6 0 2"></polygon>
        </g>
        <g id="Sucker-Copy-29" transform="translate(46.000000, 15.000000)" fill="#FFA8CB">
            <rect id="Rectangle-Copy-26" x="2" y="0" width="4" height="8"></rect>
            <rect id="Rectangle-Copy-30" x="1" y="1" width="6" height="6"></rect>
            <polygon id="Rectangle-Copy-28" points="8 2 8 6 0 6 0 2"></polygon>
        </g>
        <g id="Sucker-Copy-17" transform="translate(39.000000, 6.000000)" fill="#FFA8CB">
            <rect id="Rectangle-Copy-26" x="2" y="0" width="4" height="8"></rect>
            <rect id="Rectangle-Copy-30" x="1" y="1" width="6" height="6"></rect>
            <polygon id="Rectangle-Copy-28" points="8 2 8 6 0 6 0 2"></polygon>
        </g>
        <g id="Sucker-Copy-18" transform="translate(31.000000, 10.000000)" fill="#FFA8CB">
            <rect id="Rectangle-Copy-26" x="2" y="0" width="4" height="8"></rect>
            <rect id="Rectangle-Copy-30" x="1" y="1" width="6" height="6"></rect>
            <polygon id="Rectangle-Copy-28" points="8 2 8 6 0 6 0 2"></polygon>
        </g>
        <g id="Sucker-Copy-19" transform="translate(22.000000, 12.000000)" fill="#FFA8CB">
            <rect id="Rectangle-Copy-26" x="2" y="0" width="2" height="6"></rect>
            <rect id="Rectangle-Copy-30" x="1" y="1" width="4" height="4"></rect>
            <polygon id="Rectangle-Copy-28" points="6 2 6 4 0 4 0 2"></polygon>
        </g>
        <g id="Sucker-Copy-30" transform="translate(25.000000, 6.000000)" fill="#FFA8CB">
            <rect id="Rectangle-Copy-26" x="2" y="0" width="2" height="6"></rect>
            <rect id="Rectangle-Copy-30" x="1" y="1" width="4" height="4"></rect>
            <polygon id="Rectangle-Copy-28" points="6 2 6 4 0 4 0 2"></polygon>
        </g>
        <g id="Sucker-Copy-20" transform="translate(15.000000, 19.000000)" fill="#FFA8CB">
            <rect id="Rectangle-Copy-26" x="2" y="0" width="2" height="6"></rect>
            <rect id="Rectangle-Copy-30" x="1" y="1" width="4" height="4"></rect>
            <polygon id="Rectangle-Copy-28" points="6 2 6 4 0 4 0 2"></polygon>
        </g>
        <g id="Sucker-Copy-31" transform="translate(14.000000, 12.000000)" fill="#FFA8CB">
            <rect id="Rectangle-Copy-26" x="2" y="0" width="2" height="6"></rect>
            <rect id="Rectangle-Copy-30" x="1" y="1" width="4" height="4"></rect>
            <polygon id="Rectangle-Copy-28" points="6 2 6 4 0 4 0 2"></polygon>
        </g>
        <g id="Sucker-Copy-21" transform="translate(9.000000, 22.000000)" fill="#FFA8CB">
            <rect id="Rectangle-Copy-26" x="2" y="0" width="2" height="6"></rect>
            <rect id="Rectangle-Copy-30" x="1" y="1" width="4" height="4"></rect>
            <polygon id="Rectangle-Copy-28" points="6 2 6 4 0 4 0 2"></polygon>
        </g>
        <g id="Sucker-Copy-22" transform="translate(9.000000, 29.000000)" fill="#FFA8CB">
            <rect id="Rectangle-Copy-30" x="1" y="0" width="2" height="4"></rect>
            <polygon id="Rectangle-Copy-28" points="4 1 4 3 0 3 0 1"></polygon>
        </g>
        <g id="Sucker-Copy-23" transform="translate(5.000000, 32.000000)" fill="#FFA8CB">
            <rect id="Rectangle-Copy-30" x="1" y="0" width="2" height="4"></rect>
            <polygon id="Rectangle-Copy-28" points="4 1 4 3 0 3 0 1"></polygon>
        </g>
        <g id="Sucker-Copy-32" transform="translate(7.000000, 37.000000)" fill="#FFA8CB">
            <rect id="Rectangle-Copy-30" x="1" y="0" width="2" height="4"></rect>
            <polygon id="Rectangle-Copy-28" points="4 1 4 3 0 3 0 1"></polygon>
        </g>
        <g id="Sucker-Copy-33" transform="translate(7.000000, 43.000000)" fill="#FFA8CB">
            <rect id="Rectangle-Copy-30" x="0" y="0" width="2" height="2"></rect>
            <rect id="Rectangle-Copy-155" x="3" y="1" width="2" height="2"></rect>
            <rect id="Rectangle-Copy-156" x="2" y="4" width="2" height="2"></rect>
            <rect id="Rectangle-Copy-157" x="5" y="5" width="2" height="2"></rect>
        </g>
    </g>
</svg>