<?xml version="1.0" encoding="utf-8"?>
<!-- Generator: Adobe Illustrator 22.1.0, SVG Export Plug-In . SVG Version: 6.00 Build 0)  -->
<svg version="1.1" id="Layer_1" xmlns="http://www.w3.org/2000/svg" xmlns:xlink="http://www.w3.org/1999/xlink" x="0px" y="0px"
	 viewBox="0 0 360 290" style="enable-background:new 0 0 360 290;" xml:space="preserve">
<style type="text/css">
	.st0{fill:#03A9F4;}
</style>
<g id="surface1">
	<path class="st0" d="M360,34.3c-13.2,5.9-27.5,9.8-42.5,11.6c15.2-9.1,27-23.5,32.5-40.6c-14.3,8.4-30.1,14.5-46.9,17.8
		C289.7,8.8,270.5,0,249.3,0c-40.8,0-73.9,32.8-73.9,73.2c0,5.7,0.7,11.3,1.9,16.7C116,86.8,61.5,57.7,25.1,13.4
		c-6.4,10.8-10,23.5-10,36.9c0,25.4,13,47.8,32.9,60.9c-12.1-0.4-23.5-3.8-33.5-9.1c0,0.2,0,0.5,0,0.9c0,35.5,25.5,65.1,59.2,71.8
		c-6.2,1.7-12.7,2.6-19.4,2.6c-4.8,0-9.4-0.5-13.9-1.4c9.4,29,36.6,50.2,69,50.9c-25.3,19.6-57.1,31.4-91.8,31.4
		c-6,0-11.8-0.4-17.6-1.1C32.7,277.9,71.6,290,113.2,290c135.9,0,210.2-111.6,210.2-208.4c0-3.2-0.1-6.3-0.3-9.4
		C337.7,62,350.2,49.1,360,34.3"/>
</g>
</svg>
